STARTFONT 2.1
FONT -Sun-OPEN LOOK glyph-----20-200-75-75-P-172-SunOLglyph-1
SIZE 20 75 75
FONTBOUNDINGBOX 69 69 0 -69

STARTPROPERTIES 22
FONTNAME_REGISTRY ""
FAMILY_NAME "OPEN LOOK glyph"
FOUNDRY "Sun"
WEIGHT_NAME ""
SETWIDTH_NAME ""
SLANT ""
ADD_STYLE_NAME ""
PIXEL_SIZE 20
POINT_SIZE 200
RESOLUTION_X 75
RESOLUTION_Y 75
SPACING "P"
AVERAGE_WIDTH 172
CHARSET_REGISTRY "SunOLglyph"
CHARSET_ENCODING "1"
FULL_NAME "OLGlyph"
WEIGHT 10
X_HEIGHT 0
QUAD_WIDTH 35
DEFAULT_CHAR 0
FONT_DESCENT 69
FONT_ASCENT 0
ENDPROPERTIES

CHARS 234

STARTCHAR VerticalScrollbarEle
ENCODING 1
SWIDTH 102 0
DWIDTH 23 0
BBX 23 69 0 -69
BITMAP
7FFFFC
800006
800006
800006
800006
800006
803006
807806
80FC06
81FE06
83FF06
87FF86
8FFFC6
9FFFE6
9FFFE6
800006
800006
800006
800006
800006
800006
800006
FFFFFE
FFFFFE
800006
800006
800006
800006
800006
800006
800006
800006
800006
800006
800006
800006
800006
800006
800006
800006
800006
800006
800006
800006
FFFFFE
FFFFFE
800006
800006
800006
800006
800006
800006
800006
9FFFE6
9FFFE6
8FFFC6
87FF86
83FF06
81FE06
80FC06
807806
803006
800006
800006
800006
800006
800006
FFFFFE
7FFFFC
ENDCHAR

STARTCHAR VerticalScrollbarEle
ENCODING 2
SWIDTH 102 0
DWIDTH 24 0
BBX 23 69 0 -69
BITMAP
7FFFFC
FFFFFE
FFFFFE
FFFFFE
FFFFFE
FFFFFE
FFFFFE
FFCFFE
FF87FE
FF03FE
FE01FE
FC00FE
F0007E
E0003E
F0003E
FFFFFE
FFFFFE
FFFFFE
FFFFFE
FFFFFE
FFFFFE
FFFFFE
FFFFFE
FFFFFE
800006
800006
800006
800006
800006
800006
800006
800006
800006
800006
800006
800006
800006
800006
800006
800006
800006
800006
800006
800006
FFFFFE
FFFFFE
800006
800006
800006
800006
800006
800006
800006
9FFFE6
9FFFE6
8FFFC6
87FF86
83FF06
81FE06
80FC06
807806
803006
800006
800006
800006
800006
800006
FFFFFE
7FFFFC
ENDCHAR

STARTCHAR VerticalScrollbarEle
ENCODING 3
SWIDTH 102 0
DWIDTH 24 0
BBX 23 69 0 -69
BITMAP
7FFFFC
800006
800006
800006
800006
800006
803006
807806
80FC06
81FE06
83FF06
87FF86
8FFFC6
9FFFE6
9FFFE6
800006
800006
800006
800006
800006
800006
800006
FFFFFE
FFFFFE
FFFFFE
FFFFFE
FFFFFE
FFFFFE
FFFFFE
FFFFFE
FFFFFE
FFFFFE
FFFFFE
FFFFFE
FFFFFE
FFFFFE
FFFFFE
FFFFFE
FFFFFE
FFFFFE
FFFFFE
FFFFFE
FFFFFE
FFFFFE
FFFFFE
FFFFFE
800006
800006
800006
800006
800006
800006
800006
9FFFE6
9FFFE6
8FFFC6
87FF86
83FF06
81FE06
80FC06
807806
803006
800006
800006
800006
800006
800006
FFFFFE
7FFFFC
ENDCHAR

STARTCHAR VerticalScrollbarEle
ENCODING 4
SWIDTH 102 0
DWIDTH 23 0
BBX 23 69 0 -69
BITMAP
7FFFFC
800006
800006
800006
800006
800006
803006
807806
80FC06
81FE06
83FF06
87FF86
8FFFC6
9FFFE6
9FFFE6
800006
800006
800006
800006
800006
800006
800006
FFFFFE
FFFFFE
800006
800006
800006
800006
800006
800006
800006
800006
800006
800006
800006
800006
800006
800006
800006
800006
800006
800006
800006
800006
FFFFFE
FFFFFE
FFFFFE
FFFFFE
FFFFFE
FFFFFE
FFFFFE
FFFFFE
FFFFFE
F0003E
E0003E
F8007E
FC00FE
FE01FE
FF03FE
FF87FE
FFCFFE
FFFFFE
FFFFFE
FFFFFE
FFFFFE
FFFFFE
FFFFFE
FFFFFE
7FFFFC
ENDCHAR

STARTCHAR VerticalScrollbarRed
ENCODING 5
SWIDTH 102 0
DWIDTH 23 0
BBX 23 47 0 -47
BITMAP
7FFFFC
800006
800006
800006
800006
800006
803006
807806
80FC06
81FE06
83FF06
87FF86
8FFFC6
9FFFE6
9FFFE6
800006
800006
800006
800006
800006
800006
800006
FFFFFE
FFFFFE
800006
800006
800006
800006
800006
800006
800006
9FFFE6
9FFFE6
8FFFC6
87FF86
83FF06
81FE06
80FC06
807806
803006
800006
800006
800006
800006
80000E
FFFFFE
7FFFFC
ENDCHAR

STARTCHAR VerticalScrollbarRed
ENCODING 6
SWIDTH 102 0
DWIDTH 23 0
BBX 23 47 0 -47
BITMAP
7FFFFC
FFFFFE
FFFFFE
FFFFFE
FFFFFE
FFFFFE
FFFFFE
FFCFFE
FF87FE
FF03FE
FE01FE
FC00FE
F8007E
E0003E
F0003E
FFFFFE
FFFFFE
FFFFFE
FFFFFE
FFFFFE
FFFFFE
FFFFFE
FFFFFE
FFFFFE
800006
800006
800006
800006
800006
800006
800006
9FFFE6
9FFFE6
8FFFC6
87FF86
83FF06
81FE06
80FC06
807806
803006
800006
800006
800006
800006
80000E
FFFFFE
7FFFFC
ENDCHAR

STARTCHAR VerticalScrollbarRed
ENCODING 7
SWIDTH 102 0
DWIDTH 23 0
BBX 23 47 0 -47
BITMAP
7FFFFC
800006
800006
800006
800006
800006
803006
807806
80FC06
81FE06
83FF06
87FF86
8FFFC6
9FFFE6
9FFFE6
800006
800006
800006
800006
800006
800006
800006
FFFFFE
FFFFFE
FFFFFE
FFFFFE
FFFFFE
FFFFFE
FFFFFE
FFFFFE
FFFFFE
E0003E
E0003E
F8007E
FC00FE
FE01FE
FF03FE
FF87FE
FFCFFE
FFFFFE
FFFFFE
FFFFFE
FFFFFE
FFFFFE
FFFFFE
FFFFFE
7FFFFC
ENDCHAR

STARTCHAR VerticalScrollbarAnc
ENCODING 8
SWIDTH 102 0
DWIDTH 23 0
BBX 23 10 0 -10
BITMAP
FFFFFE
800002
800002
800002
800002
800002
800002
800002
800002
FFFFFE
ENDCHAR

STARTCHAR VerticalScrollbarAnc
ENCODING 9
SWIDTH 102 0
DWIDTH 23 0
BBX 23 10 0 -10
BITMAP
FFFFFE
FFFFFE
FFFFFE
FFFFFE
FFFFFE
FFFFFE
FFFFFE
FFFFFE
FFFFFE
FFFFFE
ENDCHAR

STARTCHAR HorizontalScrollbarE
ENCODING 10
SWIDTH 102 0
DWIDTH 69 0
BBX 69 23 0 -23
BITMAP
7FFFFFFFFFFFFFFFF0
80000300000C000018
80000300000C000018
80060300000C060018
800E0300000C070018
801E0300000C078018
803E0300000C07C018
807E0300000C07E018
80FE0300000C07F018
81FE0300000C07F818
83FE0300000C07FC18
83FE0300000C07FC18
81FE0300000C07F818
80FE0300000C07F018
807E0300000C07E018
803E0300000C07C018
801E0300000C078018
800E0300000C070018
80060300000C060018
80000300000C000018
80000300000C000018
FFFFFFFFFFFFFFFFF8
7FFFFFFFFFFFFFFFF0
ENDCHAR

STARTCHAR HorizontalScrollbarE
ENCODING 11
SWIDTH 102 0
DWIDTH 69 0
BBX 69 23 0 -23
BITMAP
7FFFFFFFFFFFFFFFF0
FFFFFF00000C000018
FFFFFF00000C000018
FFFBFF00000C060018
FFF1FF00000C070018
FFF1FF00000C078018
FFE1FF00000C07C018
FFC1FF00000C07E018
FF81FF00000C07F018
FF01FF00000C07F818
FE01FF00000C07FC18
FE01FF00000C07FC18
FF01FF00000C07F818
FF81FF00000C07F018
FFC1FF00000C07E018
FFE1FF00000C07C018
FFF1FF00000C078018
FFF9FF00000C070018
FFFFFF00000C060018
FFFFFF00000C000018
FFFFFF00000C000018
FFFFFFFFFFFFFFFFF8
7FFFFFFFFFFFFFFFF0
ENDCHAR

STARTCHAR HorizontalScrollbarE
ENCODING 12
SWIDTH 102 0
DWIDTH 69 0
BBX 69 23 0 -23
BITMAP
7FFFFFFFFFFFFFFFF0
800001FFFFFC000018
800001FFFFFC000018
800601FFFFFC060018
800E01FFFFFC070018
801E01FFFFFC078018
803E01FFFFFC07C018
807E01FFFFFC07E018
80FE01FFFFFC07F018
81FE01FFFFFC07F818
83FE01FFFFFC07FC18
83FE01FFFFFC07FC18
81FE01FFFFFC07F818
80FE01FFFFFC07F018
807E01FFFFFC07E018
803E01FFFFFC07C018
801E01FFFFFC078018
800E01FFFFFC070018
800601FFFFFC060018
800001FFFFFC000018
800001FFFFFC000018
FFFFFFFFFFFFFFFFF8
7FFFFFFFFFFFFFFFF0
ENDCHAR

STARTCHAR HorizontalScrollbarE
ENCODING 13
SWIDTH 102 0
DWIDTH 69 0
BBX 69 23 0 -23
BITMAP
7FFFFFFFFFFFFFFFF0
80000300000FFFFFF8
80000300000FFFFFF8
80060300000FFDFFF8
800E0300000FF9FFF8
801E0300000FF8FFF8
803E0300000FF87FF8
807E0300000FF83FF8
80FE0300000FF81FF8
81FE0300000FF80FF8
83FE0300000FF807F8
83FE0300000FF807F8
81FE0300000FF80FF8
80FE0300000FF81FF8
807E0300000FF83FF8
803E0300000FF87FF8
801E0300000FF8FFF8
800E0300000FF9FFF8
80060300000FFFFFF8
80000300000FFFFFF8
80000300000FFFFFF8
FFFFFFFFFFFFFFFFF8
7FFFFFFFFFFFFFFFF0
ENDCHAR

STARTCHAR HorizontalScrollbarR
ENCODING 14
SWIDTH 102 0
DWIDTH 47 0
BBX 47 23 0 -23
BITMAP
7FFFFFFFFFFC
800003000006
800003000006
800603018006
800E0301C006
801E0301E006
803E0301F006
807E0301F806
80FE0301FC06
81FE0301FE06
83FE0301FF06
83FE0301FF06
81FE0301FE06
80FE0301FC06
807E0301F806
803E0301F006
801E0301E006
800E0301C006
800603018006
800003000006
80000300000E
FFFFFFFFFFFE
7FFFFFFFFFFC
ENDCHAR

STARTCHAR HorizontalScrollbarR
ENCODING 15
SWIDTH 102 0
DWIDTH 47 0
BBX 47 23 0 -23
BITMAP
7FFFFFFFFFFC
FFFFFF000006
FFFFFF000006
FFFBFF018006
FFF9FF01C006
FFF1FF01E006
FFE1FF01F006
FFC1FF01F806
FF81FF01FC06
FF01FF01FE06
FE01FF01FF06
FE01FF01FF06
FF01FF01FE06
FF81FF01FC06
FFC1FF01F806
FFE1FF01F006
FFF1FF01E006
FFF9FF01C006
FFFFFF018006
FFFFFF000006
FFFFFF00000E
FFFFFFFFFFFE
7FFFFFFFFFFC
ENDCHAR

STARTCHAR HorizontalScrollbarR
ENCODING 16
SWIDTH 102 0
DWIDTH 47 0
BBX 47 23 0 -23
BITMAP
7FFFFFFFFFFC
800003FFFFFE
800003FFFFFE
800603FE7FFE
800E03FE7FFE
801E03FE3FFE
803E03FE1FFE
807E03FE0FFE
80FE03FE07FE
81FE03FE03FE
83FE03FE01FE
83FE03FE01FE
81FE03FE03FE
80FE03FE07FE
807E03FE0FFE
803E03FE1FFE
801E03FE3FFE
800E03FE7FFE
800603FFFFFE
800003FFFFFE
800003FFFFFE
FFFFFFFFFFFE
7FFFFFFFFFFC
ENDCHAR

STARTCHAR HorizontalScrollbarA
ENCODING 17
SWIDTH 102 0
DWIDTH 10 0
BBX 10 23 0 -23
BITMAP
FFC0
8040
8040
8040
8040
8040
8040
8040
8040
8040
8040
8040
8040
8040
8040
8040
8040
8040
8040
8040
8040
8040
FFC0
ENDCHAR

STARTCHAR HorizontalScrollbarA
ENCODING 18
SWIDTH 102 0
DWIDTH 10 0
BBX 10 23 0 -23
BITMAP
FFC0
FFC0
FFC0
FFC0
FFC0
FFC0
FFC0
FFC0
FFC0
FFC0
FFC0
FFC0
FFC0
FFC0
FFC0
FFC0
FFC0
FFC0
FFC0
FFC0
FFC0
FFC0
FFC0
ENDCHAR

STARTCHAR pupinout
ENCODING 19
SWIDTH 102 0
DWIDTH 31 0
BBX 31 15 0 -15
BITMAP
0000E000
0000900C
00009812
00009FF2
00009832
00009812
07FF9812
07FF9812
03FF9812
00009FF2
00009FF6
70009FFE
9000F81E
9000F00C
6000E000
ENDCHAR

STARTCHAR pupin-in
ENCODING 20
SWIDTH 45 0
DWIDTH 16 0
BBX 16 16 0 -16
BITMAP
00F0
078C
1E02
3602
6C01
4C01
CC01
8C03
8E03
C70E
C7FE
63FC
70FC
7C78
FFF0
C000
ENDCHAR

STARTCHAR defpupinout
ENCODING 21
SWIDTH 102 0
DWIDTH 31 0
BBX 31 18 0 -18
BITMAP
0000E000
0000900C
00009812
00009FF2
00009832
00009812
07FF9812
03FF9812
01FF9812
3C009FF2
7E009FFE
CB00FFFE
9D80F81E
A780F00C
B780E000
9D800000
43000000
3E000000
ENDCHAR

STARTCHAR C22
ENCODING 22
SWIDTH 102 0
DWIDTH 24 0
BBX 24 23 0 -23
BITMAP
3FFFF8
40000C
800006
800003
800003
83FF83
87FFC3
8600C3
830183
830183
818203
818203
804403
804403
806803
802803
803803
801003
800003
C00007
60000F
3FFFFE
1FFFFC
ENDCHAR

STARTCHAR abbrmenubuinv
ENCODING 23
SWIDTH 102 0
DWIDTH 24 0
BBX 24 23 0 -23
BITMAP
3FFFF8
40000C
9FFFF6
BFFFFB
BFFFFB
BFFFFB
BDFF7B
BFFFFB
BFFEFB
BFFFFB
BF7DFB
BF7DFB
BFBBFB
BFBBFB
BFF7FB
BFD7FB
BFFFFB
BFFFFB
BFFFFB
DFFFF7
60000F
3FFFFE
1FFFFC
ENDCHAR

STARTCHAR buutonupleft
ENCODING 24
SWIDTH 102 0
DWIDTH 19 0
BBX 19 30 0 -30
BITMAP
003FE0
01E000
038000
0E0000
1C0000
180000
300000
600000
600000
400000
400000
800000
800000
800000
800000
800000
800000
800000
400000
400000
600000
600000
300000
180000
1C0000
0C0000
000000
000000
000000
000000
ENDCHAR

STARTCHAR buutonLL
ENCODING 25
SWIDTH 102 0
DWIDTH 19 0
BBX 19 29 0 -29
BITMAP
000000
000000
000000
000000
000000
000000
000000
000000
000000
000000
000000
000000
000000
000000
000000
000000
000000
000000
000000
000000
000000
000000
000000
000000
000000
000000
078000
01E000
007FE0
ENDCHAR

STARTCHAR buttonLeftEndcapFill
ENCODING 26
SWIDTH 102 0
DWIDTH 19 0
BBX 19 30 0 -30
BITMAP
000000
003FE0
00FFE0
03FFE0
07FFE0
0FFFE0
1FFFE0
1FFFE0
3FFFE0
3FFFE0
3FFFE0
7FFFE0
7FFFE0
7FFFE0
7FFFE0
7FFFE0
7FFFE0
7FFFE0
3FFFE0
3FFFE0
3FFFE0
1FFFE0
1FFFE0
0FFFE0
07FFE0
03FFE0
00FFE0
003FE0
000000
000000
ENDCHAR

STARTCHAR buutonupLR
ENCODING 27
SWIDTH 102 0
DWIDTH 19 0
BBX 19 29 0 -29
BITMAP
000000
000000
000000
000600
000700
000300
000180
0000C0
0000C0
000040
000040
000020
000020
000020
000020
000020
000020
000020
000040
000040
0000C0
0000C0
000180
000300
000700
000E00
003800
00F000
FF8000
ENDCHAR

STARTCHAR buutonUL
ENCODING 28
SWIDTH 102 0
DWIDTH 19 0
BBX 19 29 0 -29
BITMAP
FF8000
00F000
003800
000000
000000
000000
000000
000000
000000
000000
000000
000000
000000
000000
000000
000000
000000
000000
000000
000000
000000
000000
000000
000000
000000
000000
000000
000000
000000
ENDCHAR

STARTCHAR buutonRightEndcapFil
ENCODING 29
SWIDTH 102 0
DWIDTH 19 0
BBX 19 30 0 -30
BITMAP
000000
FF8000
FFE000
FFF800
FFFC00
FFFE00
FFFF00
FFFF00
FFFF80
FFFF80
FFFF80
FFFFC0
FFFFC0
FFFFC0
FFFFC0
FFFFC0
FFFFC0
FFFFC0
FFFF80
FFFF80
FFFF80
FFFF00
FFFF00
FFFE00
FFFC00
FFF800
FFE000
FF8000
000000
000000
ENDCHAR

STARTCHAR BuTop-1
ENCODING 30
SWIDTH 102 0
DWIDTH 1 0
BBX 1 31 0 -31
BITMAP
80
00
00
00
00
00
00
00
00
00
00
00
00
00
00
00
00
00
00
00
00
00
00
00
00
00
00
00
00
00
00
ENDCHAR

STARTCHAR BuTop-2
ENCODING 31
SWIDTH 102 0
DWIDTH 2 0
BBX 2 31 0 -31
BITMAP
C0
00
00
00
00
00
00
00
00
00
00
00
00
00
00
00
00
00
00
00
00
00
00
00
00
00
00
00
00
00
00
ENDCHAR

STARTCHAR ButTop-4
ENCODING 32
SWIDTH 102 0
DWIDTH 4 0
BBX 4 31 0 -31
BITMAP
F0
00
00
00
00
00
00
00
00
00
00
00
00
00
00
00
00
00
00
00
00
00
00
00
00
00
00
00
00
00
00
ENDCHAR

STARTCHAR butTop-8
ENCODING 33
SWIDTH 102 0
DWIDTH 8 0
BBX 8 31 0 -31
BITMAP
FF
00
00
00
00
00
00
00
00
00
00
00
00
00
00
00
00
00
00
00
00
00
00
00
00
00
00
00
00
00
00
ENDCHAR

STARTCHAR butTop-16
ENCODING 34
SWIDTH 102 0
DWIDTH 16 0
BBX 16 31 0 -31
BITMAP
FFFF
0000
0000
0000
0000
0000
0000
0000
0000
0000
0000
0000
0000
0000
0000
0000
0000
0000
0000
0000
0000
0000
0000
0000
0000
0000
0000
0000
0000
0000
0000
ENDCHAR

STARTCHAR butBot-1
ENCODING 35
SWIDTH 102 0
DWIDTH 1 0
BBX 1 29 0 -29
BITMAP
00
00
00
00
00
00
00
00
00
00
00
00
00
00
00
00
00
00
00
00
00
00
00
00
00
00
00
00
80
ENDCHAR

STARTCHAR butBot-2
ENCODING 36
SWIDTH 102 0
DWIDTH 2 0
BBX 2 29 0 -29
BITMAP
00
00
00
00
00
00
00
00
00
00
00
00
00
00
00
00
00
00
00
00
00
00
00
00
00
00
00
00
C0
ENDCHAR

STARTCHAR butBot-4
ENCODING 37
SWIDTH 102 0
DWIDTH 4 0
BBX 4 29 0 -29
BITMAP
00
00
00
00
00
00
00
00
00
00
00
00
00
00
00
00
00
00
00
00
00
00
00
00
00
00
00
00
F0
ENDCHAR

STARTCHAR butBot-8
ENCODING 38
SWIDTH 102 0
DWIDTH 8 0
BBX 8 29 0 -29
BITMAP
00
00
00
00
00
00
00
00
00
00
00
00
00
00
00
00
00
00
00
00
00
00
00
00
00
00
00
00
FF
ENDCHAR

STARTCHAR butBot-16
ENCODING 39
SWIDTH 102 0
DWIDTH 16 0
BBX 16 29 0 -29
BITMAP
0000
0000
0000
0000
0000
0000
0000
0000
0000
0000
0000
0000
0000
0000
0000
0000
0000
0000
0000
0000
0000
0000
0000
0000
0000
0000
0000
0000
FFFF
ENDCHAR

STARTCHAR butFill-1
ENCODING 40
SWIDTH 102 0
DWIDTH 1 0
BBX 1 31 0 -31
BITMAP
00
80
80
80
80
80
80
80
80
80
80
80
80
80
80
80
80
80
80
80
80
80
80
80
80
80
80
80
00
00
00
ENDCHAR

STARTCHAR butFill-2
ENCODING 41
SWIDTH 102 0
DWIDTH 2 0
BBX 2 31 0 -31
BITMAP
00
C0
C0
C0
C0
C0
C0
C0
C0
C0
C0
C0
C0
C0
C0
C0
C0
C0
C0
C0
C0
C0
C0
C0
C0
C0
C0
C0
00
00
00
ENDCHAR

STARTCHAR butFill-4
ENCODING 42
SWIDTH 102 0
DWIDTH 4 0
BBX 4 31 0 -31
BITMAP
00
F0
F0
F0
F0
F0
F0
F0
F0
F0
F0
F0
F0
F0
F0
F0
F0
F0
F0
F0
F0
F0
F0
F0
F0
F0
F0
F0
00
00
00
ENDCHAR

STARTCHAR butFill-8
ENCODING 43
SWIDTH 102 0
DWIDTH 8 0
BBX 8 31 0 -31
BITMAP
00
FF
FF
FF
FF
FF
FF
FF
FF
FF
FF
FF
FF
FF
FF
FF
FF
FF
FF
FF
FF
FF
FF
FF
FF
FF
FF
FF
00
00
00
ENDCHAR

STARTCHAR butFill-16
ENCODING 44
SWIDTH 102 0
DWIDTH 16 0
BBX 16 31 0 -31
BITMAP
0000
FFFF
FFFF
FFFF
FFFF
FFFF
FFFF
FFFF
FFFF
FFFF
FFFF
FFFF
FFFF
FFFF
FFFF
FFFF
FFFF
FFFF
FFFF
FFFF
FFFF
FFFF
FFFF
FFFF
FFFF
FFFF
FFFF
FFFF
0000
0000
0000
ENDCHAR

STARTCHAR VertMeMaUL
ENCODING 45
SWIDTH 102 0
DWIDTH 0 0
BBX 14 14 0 -14
BITMAP
FFFC
8000
4000
4000
2000
2000
3000
1800
1800
0C00
0C00
0600
0600
0000
ENDCHAR

STARTCHAR VertMeMaLR
ENCODING 46
SWIDTH 102 0
DWIDTH 0 0
BBX 14 14 0 -14
BITMAP
0000
0004
0008
0008
0010
0010
0030
0060
0060
00C0
00C0
0180
0180
0300
ENDCHAR

STARTCHAR VertMeMafill
ENCODING 47
SWIDTH 102 0
DWIDTH 14 0
BBX 14 14 0 -14
BITMAP
0000
7FF8
3FF0
3FF0
1FE0
1FE0
1FE0
0FC0
0FC0
0780
0780
0300
0300
0000
ENDCHAR

STARTCHAR HorizMeMaUL
ENCODING 48
SWIDTH 102 0
DWIDTH 0 0
BBX 13 14 0 -14
BITMAP
C000
B800
8E00
8380
81E0
8078
8018
8000
8000
8000
8000
8000
8000
8000
ENDCHAR

STARTCHAR HorizMeMaLR
ENCODING 49
SWIDTH 102 0
DWIDTH 0 0
BBX 14 14 0 -14
BITMAP
0000
0000
0000
0000
0000
0000
0004
001C
0078
01E0
0380
0E00
3000
4000
ENDCHAR

STARTCHAR HoriMeMafill
ENCODING 50
SWIDTH 102 0
DWIDTH 14 0
BBX 14 14 0 -14
BITMAP
0000
4000
7000
7E00
7F80
7FE0
7FF8
7FF8
7FE0
7F80
7E00
7000
4000
0000
ENDCHAR

STARTCHAR AbbMeBu-UL
ENCODING 51
SWIDTH 102 0
DWIDTH 23 0
BBX 23 23 0 -23
BITMAP
3FFFF8
400000
800000
800000
800000
800000
800000
800000
800000
800000
800000
800000
800000
800000
800000
800000
800000
800000
800000
800000
800000
400000
000000
ENDCHAR

STARTCHAR AbbMeBu-LR
ENCODING 52
SWIDTH 102 0
DWIDTH 23 0
BBX 23 23 0 -23
BITMAP
000000
000004
000002
000002
000002
000002
000002
000002
000002
000002
000002
000002
000002
000002
000002
000002
000002
000002
000002
000002
000002
000004
3FFFF8
ENDCHAR

STARTCHAR AbbMeBu-fill
ENCODING 53
SWIDTH 102 0
DWIDTH 23 0
BBX 23 23 0 -23
BITMAP
000000
3FFFF8
7FFFFC
7FFFFC
7FFFFC
7FFFFC
7FFFFC
7FFFFC
7FFFFC
7FFFFC
7FFFFC
7FFFFC
7FFFFC
7FFFFC
7FFFFC
7FFFFC
7FFFFC
7FFFFC
7FFFFC
7FFFFC
7FFFFC
3FFFF8
000000
ENDCHAR

STARTCHAR VertSc-UL
ENCODING 54
SWIDTH 102 0
DWIDTH 23 0
BBX 23 69 0 -69
BITMAP
7FFFFC
800000
800000
800000
800000
800000
800000
800000
800000
800000
800000
800000
800000
800000
800000
800000
800000
800000
800000
800000
800000
800000
FFFFF8
FFFFF0
800000
800000
800000
800000
800000
800000
800000
800000
800000
800000
800000
800000
800000
800000
800000
800000
800000
800000
800000
800000
800000
800000
800000
800000
800000
800000
800000
800000
800000
800000
800000
800000
800000
800000
800000
800000
800000
800000
800000
800000
800000
800000
800000
800000
000000
ENDCHAR

STARTCHAR VertSc-LR
ENCODING 55
SWIDTH 102 0
DWIDTH 23 0
BBX 22 68 0 -68
BITMAP
000000
000004
000004
000004
000004
000004
003004
007804
00FC04
01FE04
03FF04
07FF84
0FFFC4
1FFFE4
1FFFE4
000004
000004
000004
000004
000004
000004
000004
000004
000004
000004
000004
000004
000004
000004
000004
000004
000004
000004
000004
000004
000004
000004
000004
000004
000004
000004
000004
000004
000004
7FFFFC
7FFFFC
000004
000004
000004
000004
000004
000004
000004
1FFFE4
1FFFE4
0FFFC4
07FF84
03FF04
01FE04
00FC04
007804
003004
000004
000004
000004
000004
000004
7FFFFC
ENDCHAR

STARTCHAR Vert-sb-bot-fill
ENCODING 56
SWIDTH 102 0
DWIDTH 23 0
BBX 23 24 0 -24
BITMAP
800002
7FFFF8
7FFFF8
7FFFF8
7FFFF8
7FFFF8
7FFFF8
7FCFF8
7F87F8
7F03F8
7E01F8
7C00F8
780078
700038
600038
7FFFF8
7FFFF8
7FFFF8
7FFFF8
7FFFF8
7FFFF8
7FFFF8
7FFFF8
000000
ENDCHAR

STARTCHAR HoriScb-UL
ENCODING 57
SWIDTH 102 0
DWIDTH 69 0
BBX 68 22 0 -22
BITMAP
7FFFFFFFFFFFFFFFF0
800003000000000000
800003000000000000
800003000000000000
800003000000000000
800003000000000000
800003000000000000
800003000000000000
800003000000000000
800003000000000000
800003000000000000
800003000000000000
800003000000000000
800003000000000000
800003000000000000
800003000000000000
800003000000000000
800003000000000000
800003000000000000
800003000000000000
800003000000000000
800000000000000000
ENDCHAR

STARTCHAR HoriSc-LR
ENCODING 58
SWIDTH 102 0
DWIDTH 69 0
BBX 68 22 0 -22
BITMAP
000000000000000000
00000000000C000010
00000000000C000010
00060000000C060010
000E0000000C070010
001E0000000C078010
003E0000000C07C010
007E0000000C07E010
00FE0000000C07F010
01FE0000000C07F810
03FE0000000C07FC10
03FE0000000C07FC10
01FE0000000C07F810
00FE0000000C07F010
007E0000000C07E010
003E0000000C07C010
001E0000000C078010
000E0000000C070010
00060000000C060010
00000000000C000010
00000000000C000010
7FFFFFFFFFFFFFFFF0
ENDCHAR

STARTCHAR Ver-sb-bot-fill
ENCODING 59
SWIDTH 102 0
DWIDTH 22 0
BBX 22 25 0 -25
BITMAP
000000
7FFFF8
7FFFF8
7FFFF8
7FFFF8
7FFFF8
7FFFF8
7FFFF8
7FFFF8
7FFFF8
600018
700038
780078
7C00F8
7E01F8
7F03F8
7F87F8
7FCFF8
7FFFF8
7FFFF8
7FFFF8
7FFFF8
7FFFF8
7FFFF8
000000
ENDCHAR

STARTCHAR HoriSliContrUL
ENCODING 60
SWIDTH 102 0
DWIDTH 16 0
BBX 16 23 0 -23
BITMAP
7FFE
8000
8000
8000
8000
8000
8000
8000
8000
8000
8000
8000
8000
8000
8000
8000
8000
8000
8000
8000
8000
8000
0000
ENDCHAR

STARTCHAR HoriSliContrLR
ENCODING 61
SWIDTH 102 0
DWIDTH 16 0
BBX 16 23 0 -23
BITMAP
0000
0001
0001
0001
0001
0001
0001
0001
0001
0001
0001
0001
0001
0001
0001
0001
0001
0001
0001
0001
0001
0001
7FFE
ENDCHAR

STARTCHAR HoriSliContrfill
ENCODING 62
SWIDTH 102 0
DWIDTH 16 0
BBX 16 23 0 -23
BITMAP
8001
7FFE
7FFE
7FFE
7FFE
7FFE
7FFE
7FFE
7FFE
7FFE
7FFE
7FFE
7FFE
7FFE
7FFE
7FFE
7FFE
7FFE
7FFE
7FFE
7FFE
7FFE
8001
ENDCHAR

STARTCHAR HoriSlid-UL
ENCODING 63
SWIDTH 102 0
DWIDTH 5 0
BBX 5 9 0 -9
BITMAP
38
60
C0
80
80
80
80
00
00
ENDCHAR

STARTCHAR @
ENCODING 64
SWIDTH 102 0
DWIDTH 5 0
BBX 5 9 0 -9
BITMAP
00
00
00
00
00
00
00
60
38
ENDCHAR

STARTCHAR HorizSlider-UR
ENCODING 65
SWIDTH 102 0
DWIDTH 4 0
BBX 5 9 0 -9
BITMAP
E0
30
00
00
00
00
00
00
00
ENDCHAR

STARTCHAR B
ENCODING 66
SWIDTH 102 0
DWIDTH 5 0
BBX 5 9 0 -9
BITMAP
00
00
08
08
08
08
18
30
E0
ENDCHAR

STARTCHAR HorizSliderBot-1
ENCODING 67
SWIDTH 102 0
DWIDTH 1 0
BBX 1 9 0 -9
BITMAP
00
00
00
00
00
00
00
00
80
ENDCHAR

STARTCHAR HorizSliderBot-2
ENCODING 68
SWIDTH 102 0
DWIDTH 2 0
BBX 2 9 0 -9
BITMAP
00
00
00
00
00
00
00
00
C0
ENDCHAR

STARTCHAR HorizSliderBot-4
ENCODING 69
SWIDTH 102 0
DWIDTH 4 0
BBX 4 9 0 -9
BITMAP
00
00
00
00
00
00
00
00
F0
ENDCHAR

STARTCHAR HorizSliderBot-8
ENCODING 70
SWIDTH 102 0
DWIDTH 8 0
BBX 8 9 0 -9
BITMAP
00
00
00
00
00
00
00
00
FF
ENDCHAR

STARTCHAR HorizSliderBot-16
ENCODING 71
SWIDTH 102 0
DWIDTH 16 0
BBX 16 9 0 -9
BITMAP
0000
0000
0000
0000
0000
0000
0000
0000
FFFF
ENDCHAR

STARTCHAR HorizSlidFill-1
ENCODING 72
SWIDTH 102 0
DWIDTH 1 0
BBX 1 9 0 -9
BITMAP
00
80
80
80
80
80
80
80
00
ENDCHAR

STARTCHAR HorizSlidFill-2
ENCODING 73
SWIDTH 102 0
DWIDTH 2 0
BBX 2 9 0 -9
BITMAP
00
C0
C0
C0
C0
C0
C0
C0
00
ENDCHAR

STARTCHAR HorizSlidFill-4
ENCODING 74
SWIDTH 102 0
DWIDTH 4 0
BBX 4 9 0 -9
BITMAP
00
F0
F0
F0
F0
F0
F0
F0
00
ENDCHAR

STARTCHAR HorizSlidFill-8
ENCODING 75
SWIDTH 102 0
DWIDTH 8 0
BBX 8 9 0 -9
BITMAP
00
FF
FF
FF
FF
FF
FF
FF
00
ENDCHAR

STARTCHAR HorizSlidFill-16
ENCODING 76
SWIDTH 102 0
DWIDTH 16 0
BBX 16 9 0 -9
BITMAP
0000
FFFF
FFFF
FFFF
FFFF
FFFF
FFFF
FFFF
0000
ENDCHAR

STARTCHAR HorSliderLeftEndCApF
ENCODING 77
SWIDTH 102 0
DWIDTH 5 0
BBX 5 9 0 -9
BITMAP
00
38
78
78
78
78
78
38
00
ENDCHAR

STARTCHAR HorSliderRightEndCap
ENCODING 78
SWIDTH 102 0
DWIDTH 4 0
BBX 4 9 0 -9
BITMAP
00
E0
F0
F0
F0
F0
F0
E0
00
ENDCHAR

STARTCHAR VertSlider-TL
ENCODING 79
SWIDTH 102 0
DWIDTH 9 0
BBX 9 5 0 -5
BITMAP
3E00
6000
C000
8000
8000
ENDCHAR

STARTCHAR VertSlider-TR
ENCODING 80
SWIDTH 102 0
DWIDTH 9 0
BBX 9 5 0 -5
BITMAP
0000
0100
0180
0080
0080
ENDCHAR

STARTCHAR VertSlider-TFill
ENCODING 81
SWIDTH 102 0
DWIDTH 9 0
BBX 10 5 0 -5
BITMAP
0000
3E00
7F00
7F00
7F00
ENDCHAR

STARTCHAR VertSlider-LL
ENCODING 82
SWIDTH 102 0
DWIDTH 9 0
BBX 9 5 0 -5
BITMAP
8000
8000
C000
4000
0000
ENDCHAR

STARTCHAR VertSlider-LR
ENCODING 83
SWIDTH 102 0
DWIDTH 9 0
BBX 9 5 0 -5
BITMAP
0080
0080
0180
0300
3E00
ENDCHAR

STARTCHAR VertSliderBotFill
ENCODING 84
SWIDTH 102 0
DWIDTH 9 0
BBX 9 5 0 -5
BITMAP
7F00
7F00
7F00
3E00
0000
ENDCHAR

STARTCHAR VertSliderControl-TL
ENCODING 85
SWIDTH 102 0
DWIDTH 23 0
BBX 23 16 0 -16
BITMAP
7FFFFC
800000
800000
800000
800000
800000
800000
800000
800000
800000
800000
800000
800000
800000
800000
000000
ENDCHAR

STARTCHAR VertSliderControl-LR
ENCODING 86
SWIDTH 102 0
DWIDTH 23 0
BBX 23 16 0 -16
BITMAP
000000
000002
000002
000002
000002
000002
000002
000002
000002
000002
000002
000002
000002
000002
000002
7FFFFC
ENDCHAR

STARTCHAR VertSliderControlFil
ENCODING 87
SWIDTH 102 0
DWIDTH 23 0
BBX 23 16 0 -16
BITMAP
800002
7FFFFC
7FFFFC
7FFFFC
7FFFFC
7FFFFC
7FFFFC
7FFFFC
7FFFFC
7FFFFC
7FFFFC
7FFFFC
7FFFFC
7FFFFC
7FFFFC
800002
ENDCHAR

STARTCHAR ULresizeUL
ENCODING 88
SWIDTH 102 0
DWIDTH 15 0
BBX 15 15 0 -15
BITMAP
FFFE
8000
8000
8000
8000
8000
8000
8000
8000
8000
8000
8000
8000
8000
8000
ENDCHAR

STARTCHAR ULresizeLR
ENCODING 89
SWIDTH 102 0
DWIDTH 15 0
BBX 15 15 0 -15
BITMAP
0000
0002
0002
0002
0002
07FE
07FE
0600
0600
0600
0600
0600
0600
0600
7E00
ENDCHAR

STARTCHAR ULresizeFill
ENCODING 90
SWIDTH 102 0
DWIDTH 15 0
BBX 15 15 0 -15
BITMAP
0000
7FFC
7FFC
7FFC
7FFC
7FFC
7C00
7C00
7C00
7C00
7C00
7C00
7C00
7C00
0000
ENDCHAR

STARTCHAR URResizeUL
ENCODING 91
SWIDTH 102 0
DWIDTH 15 0
BBX 15 15 0 -15
BITMAP
FFFE
8000
8000
8000
8000
8000
8040
00C0
00C0
00C0
00C0
00C0
00C0
00C0
00C0
ENDCHAR

STARTCHAR URResizeLR
ENCODING 92
SWIDTH 102 0
DWIDTH 15 0
BBX 15 15 0 -15
BITMAP
0000
0002
0002
0002
0002
7F82
7F02
0002
0002
0002
0002
0002
0002
0002
007E
ENDCHAR

STARTCHAR URResizeFill
ENCODING 93
SWIDTH 102 0
DWIDTH 15 0
BBX 15 15 0 -15
BITMAP
0000
7FFC
7FFC
7FFC
7FFC
7FFC
007C
007C
007C
007C
007C
007C
007C
007C
0000
ENDCHAR

STARTCHAR LRresizeUL
ENCODING 94
SWIDTH 102 0
DWIDTH 15 0
BBX 15 15 0 -15
BITMAP
00FE
00C0
00C0
00C0
00C0
00C0
00C0
00C0
FFC0
FFC0
8000
8000
8000
8000
8000
ENDCHAR

STARTCHAR LRresizeLR
ENCODING 95
SWIDTH 102 0
DWIDTH 15 0
BBX 15 15 0 -15
BITMAP
0000
0002
0002
0002
0002
0002
0002
0002
0002
0002
0002
0002
0002
0002
7FFE
ENDCHAR

STARTCHAR LRresizeFill
ENCODING 96
SWIDTH 102 0
DWIDTH 15 0
BBX 15 15 0 -15
BITMAP
0000
007C
007C
007C
007C
007C
007C
007C
007C
7FFC
7FFC
7FFC
7FFC
7FFC
0000
ENDCHAR

STARTCHAR LLresizeUL
ENCODING 97
SWIDTH 102 0
DWIDTH 15 0
BBX 15 15 0 -15
BITMAP
FE00
8000
8000
8000
8000
8000
8000
8000
81FE
83FE
8000
8000
8000
8000
8000
ENDCHAR

STARTCHAR LLresizeLR
ENCODING 98
SWIDTH 102 0
DWIDTH 15 0
BBX 15 15 0 -15
BITMAP
0000
0600
0600
0600
0600
0600
0600
0600
0400
0002
0002
0002
0002
0002
7FFE
ENDCHAR

STARTCHAR LLresizeFill
ENCODING 99
SWIDTH 102 0
DWIDTH 15 0
BBX 14 14 0 -14
BITMAP
0000
7C00
7C00
7C00
7C00
7C00
7C00
7C00
7C00
7FFC
7FFC
7FFC
7FFC
7FFC
ENDCHAR

STARTCHAR PushPinOutTop
ENCODING 100
SWIDTH 102 0
DWIDTH 30 0
BBX 30 15 0 -15
BITMAP
0000E000
00008018
00008020
00008FE0
00008060
00008020
07FF8020
07FF8020
00008020
00008020
00008020
00008000
10008000
10008000
60008000
ENDCHAR

STARTCHAR PushPinOutBottom
ENCODING 101
SWIDTH 102 0
DWIDTH 30 0
BBX 30 15 0 -15
BITMAP
00000000
00001800
00001804
00001804
00001804
00001804
00001804
01FF1824
03FF1FE4
00001FFC
00001FFC
6000183C
80007818
80007800
00006000
ENDCHAR

STARTCHAR PushPinOutFill
ENCODING 102
SWIDTH 102 0
DWIDTH 30 0
BBX 30 15 0 -15
BITMAP
00000000
00006000
00006018
00006018
00006FD8
00006FD8
00006FD8
00006FD8
00006FD8
00006FD8
00006018
00006000
60000000
60000000
00000000
ENDCHAR

STARTCHAR PushPinInTop
ENCODING 103
SWIDTH 102 0
DWIDTH 16 0
BBX 16 16 0 -16
BITMAP
00F0
0788
1E00
3600
6C00
4C00
CC00
8C00
8C00
C000
C000
4000
4000
4000
8000
0000
ENDCHAR

STARTCHAR PushPinInBottom
ENCODING 104
SWIDTH 102 0
DWIDTH 16 0
BBX 16 16 0 -16
BITMAP
0000
0004
0002
0002
0001
0001
0001
0003
0403
070E
07FE
03FC
30FC
3C78
7FF0
C7C0
ENDCHAR

STARTCHAR PushPinInFill
ENCODING 105
SWIDTH 102 0
DWIDTH 16 0
BBX 16 16 0 -16
BITMAP
0000
00F0
03FC
1BFC
3FFE
37FE
77FE
77FE
7BFC
7FFC
3CF0
3E00
1F80
07C0
0000
0000
ENDCHAR

STARTCHAR DefButRightEndCAp
ENCODING 106
SWIDTH 102 0
DWIDTH 19 0
BBX 19 28 0 -28
BITMAP
000000
000000
001FE0
007000
01E000
038000
060000
0C0000
080000
080000
100000
100000
200000
200000
200000
200000
200000
100000
100000
180000
080000
0C0000
060000
038000
01C000
007000
001FE0
000000
ENDCHAR

STARTCHAR DefButRightEndCAp
ENCODING 107
SWIDTH 102 0
DWIDTH 19 0
BBX 19 28 0 -28
BITMAP
000000
000000
FF0000
01C000
00F000
003800
000C00
000600
000200
000200
000100
000100
000080
000080
000080
000080
000080
000100
000100
000300
000200
000600
000C00
003800
007000
01C000
FF0000
000000
ENDCHAR

STARTCHAR DefButMiddle-1
ENCODING 108
SWIDTH 102 0
DWIDTH 1 0
BBX 1 28 0 -28
BITMAP
00
00
80
00
00
00
00
00
00
00
00
00
00
00
00
00
00
00
00
00
00
00
00
00
00
00
80
00
ENDCHAR

STARTCHAR DefButMiddle-2
ENCODING 109
SWIDTH 102 0
DWIDTH 2 0
BBX 2 28 0 -28
BITMAP
00
00
C0
00
00
00
00
00
00
00
00
00
00
00
00
00
00
00
00
00
00
00
00
00
00
00
C0
00
ENDCHAR

STARTCHAR DefButMiddle-4
ENCODING 110
SWIDTH 102 0
DWIDTH 4 0
BBX 4 28 0 -28
BITMAP
00
00
F0
00
00
00
00
00
00
00
00
00
00
00
00
00
00
00
00
00
00
00
00
00
00
00
F0
00
ENDCHAR

STARTCHAR DefButMiddle-8
ENCODING 111
SWIDTH 102 0
DWIDTH 8 0
BBX 8 28 0 -28
BITMAP
00
00
FF
00
00
00
00
00
00
00
00
00
00
00
00
00
00
00
00
00
00
00
00
00
00
00
FF
00
ENDCHAR

STARTCHAR DefButMiddle-16
ENCODING 112
SWIDTH 102 0
DWIDTH 16 0
BBX 16 28 0 -28
BITMAP
0000
0000
FFFF
0000
0000
0000
0000
0000
0000
0000
0000
0000
0000
0000
0000
0000
0000
0000
0000
0000
0000
0000
0000
0000
0000
0000
FFFF
0000
ENDCHAR

STARTCHAR BaseOff-SpecialChar
ENCODING 113
SWIDTH 102 0
DWIDTH 2 0
BBX 2 10 0 -10
BITMAP
C0
C0
C0
C0
C0
C0
C0
C0
C0
C0
ENDCHAR

STARTCHAR UnCheckedBox-UL
ENCODING 114
SWIDTH 102 0
DWIDTH 28 0
BBX 28 24 0 -24
BITMAP
00000000
00000000
FFFFFC00
C0000000
80000000
80000000
80000000
80000000
80000000
80000000
80000000
80000000
80000000
80000000
80000000
80000000
80000000
80000000
80000000
80000000
80000000
80000000
80000000
80000000
ENDCHAR

STARTCHAR UnCheckedBox-LR
ENCODING 115
SWIDTH 102 0
DWIDTH 28 0
BBX 28 24 0 -24
BITMAP
00000000
00000000
00000000
00000C00
00000C00
00000C00
00000C00
00000C00
00000C00
00000C00
00000C00
00000C00
00000C00
00000C00
00000C00
00000C00
00000C00
00000C00
00000C00
00000C00
00000C00
00000C00
00000C00
7FFFFC00
ENDCHAR

STARTCHAR UnCheckedBoxFill
ENCODING 116
SWIDTH 102 0
DWIDTH 22 0
BBX 23 24 0 -24
BITMAP
000000
000000
000000
7FFFF8
7FFFF8
7FFFF8
7FFFF8
7FFFF8
7FFFF8
7FFFF8
7FFFF8
7FFFF8
7FFFF8
7FFFF8
7FFFF8
7FFFF8
7FFFF8
7FFFF8
7FFFF8
7FFFF8
7FFFF8
7FFFF8
7FFFF8
000000
ENDCHAR

STARTCHAR CheckMark
ENCODING 117
SWIDTH 102 0
DWIDTH 28 0
BBX 28 24 0 -24
BITMAP
00000030
000000E0
00000780
00000F00
00003E00
00007C00
0000F800
0001F000
0001F000
0603F000
0F07C000
1F8F8000
3FDF0000
7FFF0000
3FFE0000
1FFC0000
0FFC0000
0FFC0000
07F80000
03F80000
01F00000
00F00000
00200000
00000000
ENDCHAR

STARTCHAR CheckedBoxFill
ENCODING 118
SWIDTH 102 0
DWIDTH 28 0
BBX 29 25 0 -25
BITMAP
00000000
00000000
00001C00
7FFFF800
7FFFF000
7FFFC000
7FFF8000
7FFF0C00
7FFE1C00
7BFC1800
71F83800
60F07800
4060F800
0000F800
4001F800
6003F800
7003F800
7807F800
7C07F800
7E0FF800
7F0FF800
7F9FF800
7FDFF800
00000000
00000000
ENDCHAR

STARTCHAR UnCheckedBoxOutline
ENCODING 119
SWIDTH 102 0
DWIDTH 28 0
BBX 28 24 0 -24
BITMAP
00000000
00000000
FFFFFC00
C0000C00
80000C00
80000C00
80000C00
80000C00
80000C00
80000C00
80000C00
80000C00
80000C00
80000C00
80000C00
80000C00
80000C00
80000C00
80000C00
80000C00
80000C00
80000C00
80000C00
FFFFFC00
ENDCHAR

STARTCHAR Horizgauge-UL
ENCODING 120
SWIDTH 102 0
DWIDTH 8 0
BBX 8 19 0 -19
BITMAP
01
0E
18
30
60
40
C0
80
80
80
80
80
C0
40
60
30
18
00
00
ENDCHAR

STARTCHAR Horizgauge-LL
ENCODING 121
SWIDTH 102 0
DWIDTH 8 0
BBX 8 19 0 -19
BITMAP
00
00
00
00
00
00
00
00
00
00
00
00
00
00
00
00
00
0E
01
ENDCHAR

STARTCHAR Horizgauge-UR
ENCODING 122
SWIDTH 102 0
DWIDTH 8 0
BBX 8 18 0 -18
BITMAP
80
70
00
00
00
00
00
00
00
00
00
00
00
00
00
00
00
00
ENDCHAR

STARTCHAR Horizgauge-LR
ENCODING 123
SWIDTH 102 0
DWIDTH 8 0
BBX 8 19 0 -19
BITMAP
00
00
18
0C
06
02
03
01
01
01
01
01
03
02
06
0C
18
70
80
ENDCHAR

STARTCHAR Horizgauge-MidleBot-1
ENCODING 124
SWIDTH 102 0
DWIDTH 1 0
BBX 1 19 0 -19
BITMAP
00
00
00
00
00
00
00
00
00
00
00
00
00
00
00
00
00
00
80
ENDCHAR

STARTCHAR Horizgauge-MidleBot-2
ENCODING 125
SWIDTH 102 0
DWIDTH 2 0
BBX 2 19 0 -19
BITMAP
00
00
00
00
00
00
00
00
00
00
00
00
00
00
00
00
00
00
C0
ENDCHAR

STARTCHAR Horizgauge-MidleBot-4
ENCODING 126
SWIDTH 102 0
DWIDTH 4 0
BBX 4 19 0 -19
BITMAP
00
00
00
00
00
00
00
00
00
00
00
00
00
00
00
00
00
00
F0
ENDCHAR

STARTCHAR Horizgauge-MidleBot-8
ENCODING 127
SWIDTH 102 0
DWIDTH 8 0
BBX 8 19 0 -19
BITMAP
00
00
00
00
00
00
00
00
00
00
00
00
00
00
00
00
00
00
FF
ENDCHAR

STARTCHAR Horizgauge-MidleBot-16
ENCODING 128
SWIDTH 102 0
DWIDTH 16 0
BBX 16 19 0 -19
BITMAP
0000
0000
0000
0000
0000
0000
0000
0000
0000
0000
0000
0000
0000
0000
0000
0000
0000
0000
FFFF
ENDCHAR

STARTCHAR VertGauge-UL
ENCODING 129
SWIDTH 102 0
DWIDTH 18 0
BBX 18 8 0 -8
BITMAP
03F800
0E0E00
180000
300000
600000
400000
400000
800000
ENDCHAR

STARTCHAR VertGauge-UR
ENCODING 130
SWIDTH 102 0
DWIDTH 19 0
BBX 19 8 0 -8
BITMAP
000000
000000
000100
000180
0000C0
000040
000040
000020
ENDCHAR

STARTCHAR VertGauge-LL
ENCODING 131
SWIDTH 102 0
DWIDTH 19 0
BBX 19 8 0 -8
BITMAP
800000
400000
400000
600000
300000
100000
000000
000000
ENDCHAR

STARTCHAR VertGauge-LR
ENCODING 132
SWIDTH 102 0
DWIDTH 18 0
BBX 18 8 0 -8
BITMAP
000040
000080
000080
000180
000300
000600
1C1C00
07F000
ENDCHAR

STARTCHAR VertAbbrScroBarUL
ENCODING 133
SWIDTH 102 0
DWIDTH 28 0
BBX 23 47 0 -47
BITMAP
7FFFFC
800000
800000
800000
800000
800000
800000
800000
800000
800000
800000
800000
800000
800000
800000
800000
800000
800000
800000
800000
800000
800000
800000
800000
800000
800000
800000
800000
800000
800000
800000
800000
800000
800000
800000
800000
800000
800000
800000
800000
800000
800000
800000
800000
800000
800000
000000
ENDCHAR

STARTCHAR VertAbbrScroBarLR
ENCODING 134
SWIDTH 102 0
DWIDTH 23 0
BBX 22 46 0 -46
BITMAP
000000
000004
000004
000004
000004
000004
003004
007804
00FC04
01FE04
03FF04
07FF84
0FFFC4
1FFFE4
1FFFE4
000004
000004
000004
000004
000004
000004
000004
7FFFFC
7FFFFC
000004
000004
000004
000004
000004
000004
000004
1FFFE4
1FFFE4
0FFFC4
07FF84
03FF04
01FE04
00FC04
007804
003004
000004
000004
000004
000004
000004
7FFFFC
ENDCHAR

STARTCHAR Horiz-sb-rightbox-fi
ENCODING 135
SWIDTH 102 0
DWIDTH 25 0
BBX 25 23 0 -23
BITMAP
00000080
7FFFFE00
7FFFFE00
7FBFFE00
7F9FFE00
7F8FFE00
7F87FE00
7F83FE00
7F81FE00
7F80FE00
7F807E00
7F807E00
7F80FE00
7F81FE00
7F83FE00
7F87FE00
7F8FFE00
7F9FFE00
7FFFFE00
7FFFFE00
7FFFFE00
00000000
00000080
ENDCHAR

STARTCHAR HoriabbScrBa-UL
ENCODING 136
SWIDTH 102 0
DWIDTH 47 0
BBX 48 23 0 -23
BITMAP
7FFFFFFFFFFC
800000000000
800000000000
800000000000
800000000000
800000000000
800000000000
800000000000
800000000000
800000000000
800000000000
800000000000
800000000000
800000000000
800000000000
800000000000
800000000000
800000000000
800000000000
800000000000
800000000000
800000000000
000000000000
ENDCHAR

STARTCHAR HorizAbbScroBa-LR
ENCODING 137
SWIDTH 102 0
DWIDTH 47 0
BBX 46 22 0 -22
BITMAP
000000000000
000003000004
000003000004
000603018004
000E0301C004
001E0301E004
003E0301F004
007E0301F804
00FE0301FC04
01FE0301FE04
03FE0301FF04
03FE0301FF04
01FE0301FE04
00FE0301FC04
007E0301F804
003E0301F004
001E0301E004
000E0301C004
000603018004
000003000004
000003000004
7FFFFFFFFFFC
ENDCHAR

STARTCHAR Horiz-sb-leftbox-fil
ENCODING 138
SWIDTH 102 0
DWIDTH 24 0
BBX 23 23 0 -23
BITMAP
800000
7FFFFE
7FFFFE
7FFDFE
7FF9FE
7FF1FE
7FE1FE
7FC1FE
7F81FE
7F01FE
7E01FE
7E01FE
7F01FE
7F81FE
7FC1FE
7FE1FE
7FF1FE
7FF9FE
7FFFFE
7FFFFE
7FFFFE
000000
800000
ENDCHAR

STARTCHAR ButOutlLeftEndCAp
ENCODING 139
SWIDTH 102 0
DWIDTH 19 0
BBX 19 30 0 -30
BITMAP
003FE0
01E000
038000
0E0000
1C0000
180000
300000
600000
600000
400000
400000
800000
800000
800000
800000
800000
800000
800000
400000
400000
600000
600000
300000
180000
1C0000
0E0000
078000
01E000
00FFE0
001FE0
ENDCHAR

STARTCHAR ButOutRightEndCap
ENCODING 140
SWIDTH 102 0
DWIDTH 20 0
BBX 20 30 0 -30
BITMAP
FF8000
00F000
003800
000E00
000700
000380
000180
0000C0
0000E0
000060
000060
000020
000030
000030
000030
000030
000030
000030
000070
000060
0000E0
0000E0
0001C0
0003C0
000780
000F80
003F00
00FE00
FFF800
FFC000
ENDCHAR

STARTCHAR ButOutlMiddle-1
ENCODING 141
SWIDTH 102 0
DWIDTH 1 0
BBX 1 30 0 -30
BITMAP
80
00
00
00
00
00
00
00
00
00
00
00
00
00
00
00
00
00
00
00
00
00
00
00
00
00
00
00
80
80
ENDCHAR

STARTCHAR ButOutlMiddle-2
ENCODING 142
SWIDTH 102 0
DWIDTH 2 0
BBX 2 30 0 -30
BITMAP
C0
00
00
00
00
00
00
00
00
00
00
00
00
00
00
00
00
00
00
00
00
00
00
00
00
00
00
00
C0
C0
ENDCHAR

STARTCHAR ButOutlMiddle-4
ENCODING 143
SWIDTH 102 0
DWIDTH 4 0
BBX 4 30 0 -30
BITMAP
F0
00
00
00
00
00
00
00
00
00
00
00
00
00
00
00
00
00
00
00
00
00
00
00
00
00
00
00
F0
F0
ENDCHAR

STARTCHAR ButOutlMiddle-8
ENCODING 144
SWIDTH 102 0
DWIDTH 8 0
BBX 8 30 0 -30
BITMAP
FF
00
00
00
00
00
00
00
00
00
00
00
00
00
00
00
00
00
00
00
00
00
00
00
00
00
00
00
FF
FF
ENDCHAR

STARTCHAR ButOutlMiddle-16
ENCODING 145
SWIDTH 102 0
DWIDTH 16 0
BBX 16 30 0 -30
BITMAP
FFFF
0000
0000
0000
0000
0000
0000
0000
0000
0000
0000
0000
0000
0000
0000
0000
0000
0000
0000
0000
0000
0000
0000
0000
0000
0000
0000
0000
FFFF
FFFF
ENDCHAR

STARTCHAR ButOutlLeftEndCApFil
ENCODING 146
SWIDTH 102 0
DWIDTH 19 0
BBX 19 29 0 -29
BITMAP
000000
000000
000000
001FE0
007FE0
01FFE0
03FFE0
07FFE0
07FFE0
07FFE0
0FFFE0
0FFFE0
1FFFE0
1FFFE0
1FFFE0
1FFFE0
1FFFE0
0FFFE0
0FFFE0
07FFE0
07FFE0
07FFE0
03FFE0
01FFE0
007FE0
001FE0
000000
000000
000000
ENDCHAR

STARTCHAR ButOutlRightEndCap
ENCODING 147
SWIDTH 102 0
DWIDTH 16 0
BBX 19 29 0 -29
BITMAP
000000
000000
000000
FF0000
FFC000
FFF000
FFF800
FFFC00
FFFC00
FFFC00
FFFE00
FFFE00
FFFF00
FFFF00
FFFF00
FFFF00
FFFF00
FFFE00
FFFE00
FFFC00
FFFC00
FFFC00
FFF800
FFF000
FFC000
FF0000
000000
000000
000000
ENDCHAR

STARTCHAR ButOutlMiddleFill-1
ENCODING 148
SWIDTH 102 0
DWIDTH 1 0
BBX 1 29 0 -29
BITMAP
00
00
00
80
80
80
80
80
80
80
80
80
80
80
80
80
80
80
80
80
80
80
80
80
80
80
00
00
00
ENDCHAR

STARTCHAR ButOutlMiddleFill-2
ENCODING 149
SWIDTH 102 0
DWIDTH 2 0
BBX 2 29 0 -29
BITMAP
00
00
00
C0
C0
C0
C0
C0
C0
C0
C0
C0
C0
C0
C0
C0
C0
C0
C0
C0
C0
C0
C0
C0
C0
C0
00
00
00
ENDCHAR

STARTCHAR ButOutlMiddleFill-4
ENCODING 150
SWIDTH 102 0
DWIDTH 4 0
BBX 4 29 0 -29
BITMAP
00
00
00
F0
F0
F0
F0
F0
F0
F0
F0
F0
F0
F0
F0
F0
F0
F0
F0
F0
F0
F0
F0
F0
F0
F0
00
00
00
ENDCHAR

STARTCHAR ButOutlMiddleFill-8
ENCODING 151
SWIDTH 102 0
DWIDTH 8 0
BBX 8 29 0 -29
BITMAP
00
00
00
FF
FF
FF
FF
FF
FF
FF
FF
FF
FF
FF
FF
FF
FF
FF
FF
FF
FF
FF
FF
FF
FF
FF
00
00
00
ENDCHAR

STARTCHAR ButOutlMiddleFill-16
ENCODING 152
SWIDTH 102 0
DWIDTH 16 0
BBX 16 29 0 -29
BITMAP
0000
0000
0000
FFFF
FFFF
FFFF
FFFF
FFFF
FFFF
FFFF
FFFF
FFFF
FFFF
FFFF
FFFF
FFFF
FFFF
FFFF
FFFF
FFFF
FFFF
FFFF
FFFF
FFFF
FFFF
FFFF
0000
0000
0000
ENDCHAR

STARTCHAR MenuDfltOutlLeftEndc
ENCODING 153
SWIDTH 102 0
DWIDTH 15 0
BBX 15 25 0 -25
BITMAP
00FE
0380
0E00
1800
3000
2000
6000
4000
C000
8000
8000
8000
8000
8000
8000
8000
C000
4000
6000
2000
3000
1800
0E00
0380
00FE
ENDCHAR

STARTCHAR MenuDfltOutlRightEnd
ENCODING 154
SWIDTH 102 0
DWIDTH 15 0
BBX 15 25 0 -25
BITMAP
FE00
0380
00E0
0030
0018
0008
000C
0004
0006
0002
0002
0002
0002
0002
0002
0002
0006
0004
000C
0008
0018
0030
00E0
0380
FE00
ENDCHAR

STARTCHAR MenuDfltOutlMiddle-1
ENCODING 155
SWIDTH 102 0
DWIDTH 2 0
BBX 2 25 0 -25
BITMAP
C0
00
00
00
00
00
00
00
00
00
00
00
00
00
00
00
00
00
00
00
00
00
00
00
C0
ENDCHAR

STARTCHAR MenuDfltOutlMiddle-2
ENCODING 156
SWIDTH 102 0
DWIDTH 3 0
BBX 3 25 0 -25
BITMAP
E0
00
00
00
00
00
00
00
00
00
00
00
00
00
00
00
00
00
00
00
00
00
00
00
E0
ENDCHAR

STARTCHAR MenuDfltOutlMiddle-4
ENCODING 157
SWIDTH 102 0
DWIDTH 5 0
BBX 5 25 0 -25
BITMAP
F8
00
00
00
00
00
00
00
00
00
00
00
00
00
00
00
00
00
00
00
00
00
00
00
F8
ENDCHAR

STARTCHAR MenuDfltOutlMiddle-8
ENCODING 158
SWIDTH 102 0
DWIDTH 9 0
BBX 9 25 0 -25
BITMAP
FF80
0000
0000
0000
0000
0000
0000
0000
0000
0000
0000
0000
0000
0000
0000
0000
0000
0000
0000
0000
0000
0000
0000
0000
FF80
ENDCHAR

STARTCHAR MenuDfltOutlMiddle-1
ENCODING 159
SWIDTH 102 0
DWIDTH 17 0
BBX 17 25 0 -25
BITMAP
FFFF80
000000
000000
000000
000000
000000
000000
000000
000000
000000
000000
000000
000000
000000
000000
000000
000000
000000
000000
000000
000000
000000
000000
000000
FFFF80
ENDCHAR

STARTCHAR ButtonSpecial-UL
ENCODING 160
SWIDTH 102 0
DWIDTH 8 0
BBX 8 8 0 -8
BITMAP
0F
38
60
40
C0
80
80
80
ENDCHAR

STARTCHAR ButtonSpecial-LL
ENCODING 161
SWIDTH 102 0
DWIDTH 7 0
BBX 8 8 0 -8
BITMAP
80
80
80
C0
40
60
38
0F
ENDCHAR

STARTCHAR REsizeOutl-UL
ENCODING 162
SWIDTH 102 0
DWIDTH 15 0
BBX 15 15 0 -15
BITMAP
FFFE
8002
8002
8002
8002
87FE
87FE
8600
8600
8600
8600
8600
8600
8600
FE00
ENDCHAR

STARTCHAR REsizeOutl-UR
ENCODING 163
SWIDTH 102 0
DWIDTH 15 0
BBX 15 15 0 -15
BITMAP
FFFE
8002
8002
8002
8002
FFC2
FFC2
00C2
00C2
00C2
00C2
00C2
00C2
00C2
00FE
ENDCHAR

STARTCHAR REsizeOutl-LR
ENCODING 164
SWIDTH 102 0
DWIDTH 15 0
BBX 15 15 0 -15
BITMAP
00FE
00C2
00C2
00C2
00C2
00C2
00C2
00C2
FFC2
FFC2
8002
8002
8002
8002
FFFE
ENDCHAR

STARTCHAR REsizeOutl-LL
ENCODING 165
SWIDTH 102 0
DWIDTH 15 0
BBX 15 15 0 -15
BITMAP
FE00
8600
8600
8600
8600
8600
8600
8600
87FE
87FE
8002
8002
8002
8002
FFFE
ENDCHAR

STARTCHAR VerticalScrollbarEle
ENCODING 166
SWIDTH 102 0
DWIDTH 23 0
BBX 23 69 0 -69
BITMAP
7FFFFC
800006
800006
800006
800006
800006
802006
807006
80F806
81FC06
83FE06
87FF06
8FD786
9FABC6
8F5586
800006
800006
800006
800006
800006
800006
800006
FFFFFE
FFFFFE
800006
800006
800006
800006
800006
800006
800006
800006
800006
800006
800006
800006
800006
800006
800006
800006
800006
800006
800006
800006
FFFFFE
FFFFFE
800006
800006
800006
800006
800006
800006
800006
9FFFE6
9FFFE6
8FFFC6
87FF86
83FF06
81FE06
80FC06
807806
803006
800006
800006
800006
800006
800006
FFFFFE
7FFFFC
ENDCHAR

STARTCHAR VerticalScrollbarEle
ENCODING 167
SWIDTH 102 0
DWIDTH 24 0
BBX 23 69 0 -69
BITMAP
7FFFFC
800006
800006
800006
800006
800006
803006
807806
80FC06
81FE06
83FF06
87FF86
8FFFC6
9FFFE6
9FFFE6
800006
800006
800006
800006
800006
800006
800006
FFFFFE
FFFFFE
800006
800006
800006
800006
800006
800006
800006
800006
800006
800006
800006
800006
800006
800006
800006
800006
800006
800006
800006
800006
FFFFFE
FFFFFE
800006
800006
800006
800006
800006
800006
800006
8F5586
9FABC6
8FD786
87EF06
83FE06
81FC06
80F806
807006
802006
800006
800006
800006
800006
800006
FFFFFE
7FFFFC
ENDCHAR

STARTCHAR VerticalScrollbarEle
ENCODING 168
SWIDTH 102 0
DWIDTH 23 0
BBX 23 69 0 -69
BITMAP
7FFFFC
800006
800006
800006
800006
800006
802006
807006
80F806
81FC06
83FE06
87FF06
8FD786
9FABC6
8F5586
800006
800006
800006
800006
800006
800006
800006
FFFFFE
FFFFFE
800006
800006
800006
800006
800006
800006
800006
800006
800006
800006
800006
800006
800006
800006
800006
800006
800006
800006
800006
800006
FFFFFE
FFFFFE
800006
800006
800006
800006
800006
800006
800006
8F5586
9FABC6
8FD786
87EF06
83FE06
81FC06
80F806
807006
802006
800006
800006
800006
800006
800006
FFFFFE
7FFFFC
ENDCHAR

STARTCHAR HorizontalScrollbarE
ENCODING 169
SWIDTH 102 0
DWIDTH 69 0
BBX 69 23 0 -23
BITMAP
7FFFFFFFFFFFFFFFF0
80000300000C000018
80000300000C000018
80000300000C060018
80040300000C070018
800E0300000C078018
801E0300000C07C018
803C0300000C07E018
807E0300000C07F018
80FC0300000C07F818
81FA0300000C07FC18
83F40300000C07FC18
81FA0300000C07F818
80FC0300000C07F018
807E0300000C07E018
803C0300000C07C018
801E0300000C078018
800E0300000C070018
80040300000C060018
80000300000C000018
80000300000C000018
FFFFFFFFFFFFFFFFF8
7FFFFFFFFFFFFFFFF0
ENDCHAR

STARTCHAR HorizontalScrollbarE
ENCODING 170
SWIDTH 102 0
DWIDTH 70 0
BBX 69 23 0 -23
BITMAP
7FFFFFFFFFFFFFFFF0
80000300000C000018
80000300000C000018
80060300000C020018
800E0300000C070018
801E0300000C078018
803E0300000C07C018
807E0300000C07E018
80FE0300000C03F018
81FE0300000C05F818
83FE0300000C02FC18
83FE0300000C057818
81FE0300000C02F018
80FE0300000C05E018
807E0300000C03C018
803E0300000C078018
801E0300000C070018
800E0300000C020018
80060300000C000018
80000300000C000018
80000300000C000018
FFFFFFFFFFFFFFFFF8
7FFFFFFFFFFFFFFFF0
ENDCHAR

STARTCHAR HorizontalScrollbarE
ENCODING 171
SWIDTH 102 0
DWIDTH 69 0
BBX 69 23 0 -23
BITMAP
7FFFFFFFFFFFFFFFF0
80000300000C000018
80000300000C000018
80000300000C020018
80040300000C070018
800E0300000C078018
801E0300000C07C018
803C0300000C07E018
807E0300000C03F018
80FC0300000C05F818
81FA0300000C02FC18
83F40300000C057818
81FA0300000C02F018
80FC0300000C05E018
807E0300000C03C018
803C0300000C078018
801E0300000C070018
800E0300000C020018
80040300000C000018
80000300000C000018
80000300000C000018
FFFFFFFFFFFFFFFFF8
7FFFFFFFFFFFFFFFF0
ENDCHAR

STARTCHAR C172
ENCODING 172
SWIDTH 102 0
DWIDTH 16 0
BBX 16 23 0 -23
BITMAP
7FFE
8003
8003
8003
8003
8003
8003
8003
8003
8003
8003
8003
8003
8003
8003
8003
8003
8003
8003
8003
8003
FFFF
7FFE
ENDCHAR

STARTCHAR HorizSliderLeftEndca
ENCODING 173
SWIDTH 102 0
DWIDTH 5 0
BBX 5 9 0 -9
BITMAP
38
60
C0
80
80
80
C0
60
38
ENDCHAR

STARTCHAR HorizSliderRightEndc
ENCODING 174
SWIDTH 102 0
DWIDTH 5 0
BBX 5 9 0 -9
BITMAP
E0
30
18
08
08
08
18
30
E0
ENDCHAR

STARTCHAR HorizSliderMiddle-1
ENCODING 175
SWIDTH 102 0
DWIDTH 1 0
BBX 1 9 0 -9
BITMAP
80
00
00
00
00
00
00
00
80
ENDCHAR

STARTCHAR HorizSliderMiddle-2
ENCODING 176
SWIDTH 102 0
DWIDTH 2 0
BBX 2 9 0 -9
BITMAP
C0
00
00
00
00
00
00
00
C0
ENDCHAR

STARTCHAR HorizSliderMiddle-4
ENCODING 177
SWIDTH 102 0
DWIDTH 4 0
BBX 4 9 0 -9
BITMAP
F0
00
00
00
00
00
00
00
F0
ENDCHAR

STARTCHAR HorizSliderMiddle-8
ENCODING 178
SWIDTH 102 0
DWIDTH 8 0
BBX 8 9 0 -9
BITMAP
FF
00
00
00
00
00
00
00
FF
ENDCHAR

STARTCHAR HorizSliderMiddle-16
ENCODING 179
SWIDTH 102 0
DWIDTH 16 0
BBX 16 9 0 -9
BITMAP
FFFF
0000
0000
0000
0000
0000
0000
0000
FFFF
ENDCHAR

STARTCHAR VertSliderTopEndcap
ENCODING 180
SWIDTH 102 0
DWIDTH 9 0
BBX 9 5 0 -5
BITMAP
3E00
6300
C180
8080
8080
ENDCHAR

STARTCHAR VertSliderBottomEndc
ENCODING 181
SWIDTH 102 0
DWIDTH 9 0
BBX 9 5 0 -5
BITMAP
8080
8080
C180
6300
3E00
ENDCHAR

STARTCHAR VertSliderControlOut
ENCODING 182
SWIDTH 102 0
DWIDTH 23 0
BBX 23 16 0 -16
BITMAP
7FFFFC
800006
800006
800006
800006
800006
800006
800006
800006
800006
800006
800006
800006
800006
FFFFFE
7FFFFC
ENDCHAR

STARTCHAR PushPinOutDefTop
ENCODING 183
SWIDTH 102 0
DWIDTH 29 0
BBX 29 16 0 -16
BITMAP
0000F000
00008018
00008020
00008FE0
00008060
00008020
07FF8020
03FF8020
00008020
3C008020
7C008020
40008000
80008000
86008000
86008000
9C000000
ENDCHAR

STARTCHAR PushPinDefOutBottom
ENCODING 184
SWIDTH 102 0
DWIDTH 30 0
BBX 30 18 0 -18
BITMAP
00000000
00001800
00001804
00001804
00001804
00001804
00001804
03FF1824
01FF1FE4
00001FFC
00001FFC
0B00783C
19807818
21807000
21806000
01800000
03000000
3E000000
ENDCHAR

STARTCHAR PushPinOutDefFill
ENCODING 185
SWIDTH 102 0
DWIDTH 29 0
BBX 29 15 0 -15
BITMAP
00000000
00007000
00007018
00007018
00007FD8
00007FD8
00007FD8
00007FD8
00007FD8
00007FD8
00007018
00006000
00000000
1C000000
1C000000
ENDCHAR

STARTCHAR HorizGauleLeftEndcap
ENCODING 186
SWIDTH 102 0
DWIDTH 8 0
BBX 8 19 0 -19
BITMAP
01
0E
18
30
60
40
C0
80
80
80
80
80
C0
40
60
30
18
0E
01
ENDCHAR

STARTCHAR HorizGaugwRightEndca
ENCODING 187
SWIDTH 102 0
DWIDTH 8 0
BBX 8 19 0 -19
BITMAP
80
70
18
0C
06
02
03
01
01
01
01
01
03
02
06
0C
18
70
80
ENDCHAR

STARTCHAR HorizGaugeOutlMiddle-1
ENCODING 188
SWIDTH 102 0
DWIDTH 1 0
BBX 1 19 0 -19
BITMAP
80
00
00
00
00
00
00
00
00
00
00
00
00
00
00
00
00
00
80
ENDCHAR

STARTCHAR HorizGaugeOutlMiddle-2
ENCODING 189
SWIDTH 102 0
DWIDTH 2 0
BBX 2 19 0 -19
BITMAP
C0
00
00
00
00
00
00
00
00
00
00
00
00
00
00
00
00
00
C0
ENDCHAR

STARTCHAR HorizGaugeOutlMiddle-4
ENCODING 190
SWIDTH 102 0
DWIDTH 4 0
BBX 4 19 0 -19
BITMAP
F0
00
00
00
00
00
00
00
00
00
00
00
00
00
00
00
00
00
F0
ENDCHAR

STARTCHAR HorizGaugeOutlMiddle-8
ENCODING 191
SWIDTH 102 0
DWIDTH 8 0
BBX 8 19 0 -19
BITMAP
FF
00
00
00
00
00
00
00
00
00
00
00
00
00
00
00
00
00
FF
ENDCHAR

STARTCHAR HorizGaugeOutlMiddle-16
ENCODING 192
SWIDTH 102 0
DWIDTH 16 0
BBX 16 19 0 -19
BITMAP
FFFF
0000
0000
0000
0000
0000
0000
0000
0000
0000
0000
0000
0000
0000
0000
0000
0000
0000
FFFF
ENDCHAR

STARTCHAR CheckBoxClean
ENCODING 193
SWIDTH 102 0
DWIDTH 28 0
BBX 28 24 0 -24
BITMAP
FFFFFFF0
FFFFFFF0
000007F0
000007F0
000007F0
000007F0
000007F0
000007F0
000007F0
000007F0
000007F0
000007F0
000007F0
000007F0
000007F0
000007F0
000007F0
000007F0
000007F0
000007F0
000007F0
000007F0
000007F0
000007F0
ENDCHAR

STARTCHAR Vert-sb-box-UL
ENCODING 194
SWIDTH 102 0
DWIDTH 22 0
BBX 22 25 0 -25
BITMAP
FFFFFC
800000
800000
800000
800000
800000
800000
800000
800000
800000
800000
800000
800000
800000
800000
800000
800000
800000
800000
800000
800000
800000
800000
800000
000000
ENDCHAR

STARTCHAR Vert-sb-box-LR
ENCODING 195
SWIDTH 102 0
DWIDTH 22 0
BBX 22 24 0 -24
BITMAP
000000
000004
000004
000004
000004
000004
000004
000004
000004
000004
000004
000004
000004
000004
000004
000004
000004
000004
000004
000004
000004
000004
000004
7FFFFC
ENDCHAR

STARTCHAR Dimple.UL
ENCODING 196
SWIDTH 102 0
DWIDTH 12 0
BBX 12 17 0 -17
BITMAP
0000
0000
0000
0000
0000
0000
00F0
07F0
0780
0600
0E00
0C00
0C00
0E00
0600
0780
01C0
ENDCHAR

STARTCHAR Dimple.UL
ENCODING 197
SWIDTH 102 0
DWIDTH 15 0
BBX 15 17 0 -17
BITMAP
0000
0000
0000
0000
0000
0000
0000
001C
001C
0006
0006
0002
0006
0006
0004
003C
0070
ENDCHAR

STARTCHAR Dimple.UL
ENCODING 198
SWIDTH 102 0
DWIDTH 14 0
BBX 14 16 0 -16
BITMAP
0000
0000
0000
0000
0000
0000
0000
0060
01F8
03F8
03FC
07FC
07FC
03F8
03F8
00E0
ENDCHAR

STARTCHAR SldierOffset_SpecCha
ENCODING 199
SWIDTH 102 0
DWIDTH 7 0
BBX 7 2 0 -2
BITMAP
FE
FE
ENDCHAR

STARTCHAR Horiz-sb-box-UL
ENCODING 200
SWIDTH 102 0
DWIDTH 23 0
BBX 23 22 0 -22
BITMAP
7FFFFE
800000
800000
800000
800000
800000
800000
800000
800000
800000
800000
800000
800000
800000
800000
800000
800000
800000
800000
800000
800000
800000
ENDCHAR

STARTCHAR Horiz-sb-box-LR
ENCODING 201
SWIDTH 102 0
DWIDTH 24 0
BBX 24 22 0 -22
BITMAP
000000
000001
000001
000001
000001
000001
000001
000001
000001
000001
000001
000001
000001
000001
000001
000001
000001
000001
000001
000001
000001
7FFFFF
ENDCHAR

STARTCHAR Vertmenumarkback-ul
ENCODING 202
SWIDTH 102 0
DWIDTH 0 0
BBX 14 14 0 -14
BITMAP
0300
0600
0600
0C00
0C00
1800
1800
3000
2000
2000
4000
4000
8000
8000
ENDCHAR

STARTCHAR VertMenuMarkBack-LR
ENCODING 203
SWIDTH 102 0
DWIDTH 0 0
BBX 14 14 0 -14
BITMAP
0000
0180
0180
00C0
00C0
0060
0060
0030
0010
0010
0008
0008
0004
7FFC
ENDCHAR

STARTCHAR VertMenuMarkback-fil
ENCODING 204
SWIDTH 102 0
DWIDTH 14 0
BBX 14 14 0 -14
BITMAP
0000
0300
0300
0780
0780
0FC0
0FC0
1FE0
1FE0
1FE0
3FF0
3FF0
7FF8
0000
ENDCHAR

STARTCHAR HorizMenuMarkback-ul
ENCODING 205
SWIDTH 102 0
DWIDTH 0 0
BBX 14 8 0 -8
BITMAP
000C
0030
01C0
0780
1F00
1800
6000
8000
ENDCHAR

STARTCHAR HorizMenuMarkback-lr
ENCODING 206
SWIDTH 102 0
DWIDTH 0 0
BBX 14 14 0 -14
BITMAP
0000
0004
0004
0004
0004
0004
0004
6004
7804
1E04
0704
01C4
0034
000C
ENDCHAR

STARTCHAR HorizMenuMarkback-fi
ENCODING 207
SWIDTH 102 0
DWIDTH 15 0
BBX 15 14 0 -14
BITMAP
0000
0008
0078
01F8
07F8
1FF8
7FF8
7FF8
1FF8
07F8
01F8
0078
0008
0000
ENDCHAR

STARTCHAR ActiveCaret
ENCODING 208
SWIDTH 102 0
DWIDTH 10 0
BBX 10 10 0 -10
BITMAP
0C00
0C00
1E00
1E00
3F00
3F00
3F00
7F80
7F80
FFC0
ENDCHAR

STARTCHAR InactiveCaret
ENCODING 209
SWIDTH 102 0
DWIDTH 10 0
BBX 10 10 0 -10
BITMAP
0C00
1E00
3F00
7F80
FFC0
FFC0
7F80
3F00
1E00
0C00
ENDCHAR

STARTCHAR Vertgauge-TopEndcap
ENCODING 210
SWIDTH 102 0
DWIDTH 19 0
BBX 19 8 0 -8
BITMAP
03F800
0E0E00
180300
300180
6000C0
400040
400040
800020
ENDCHAR

STARTCHAR Vertgauge-Botendcap
ENCODING 211
SWIDTH 102 0
DWIDTH 19 0
BBX 19 8 0 -8
BITMAP
800020
400040
400040
6000C0
300180
180300
0E0E00
03F800
ENDCHAR

STARTCHAR ButtonSpec-UR
ENCODING 212
SWIDTH 102 0
DWIDTH 8 0
BBX 8 8 0 -8
BITMAP
F0
1C
06
02
03
01
01
01
ENDCHAR

STARTCHAR ButtonSpec-LR
ENCODING 213
SWIDTH 102 0
DWIDTH 8 0
BBX 8 8 0 -8
BITMAP
01
01
01
03
02
06
1C
F0
ENDCHAR

STARTCHAR ButtonSpec-2D-LR
ENCODING 214
SWIDTH 102 0
DWIDTH 8 0
BBX 9 9 0 -9
BITMAP
0180
0180
0180
0380
0700
0F00
1E00
FC00
F000
ENDCHAR

STARTCHAR ButtonSpecialDef-UL
ENCODING 215
SWIDTH 102 0
DWIDTH 8 0
BBX 8 8 0 -8
BITMAP
00
00
00
03
07
0C
18
18
ENDCHAR

STARTCHAR ButtonSpecialDef-LL
ENCODING 216
SWIDTH 102 0
DWIDTH 8 0
BBX 8 5 0 -5
BITMAP
18
18
0C
0C
03
ENDCHAR

STARTCHAR ButtonSpecDef-UR
ENCODING 217
SWIDTH 102 0
DWIDTH 5 0
BBX 5 8 0 -8
BITMAP
00
00
00
C0
F0
30
08
08
ENDCHAR

STARTCHAR ButtonSpecDef-LR
ENCODING 218
SWIDTH 102 0
DWIDTH 5 0
BBX 5 5 0 -5
BITMAP
08
08
18
30
E0
ENDCHAR

STARTCHAR HorizGaugeLeftEnd-Fi
ENCODING 219
SWIDTH 102 0
DWIDTH 8 0
BBX 8 19 0 -19
BITMAP
00
01
0F
1F
3F
3F
7F
7F
7F
7F
7F
7F
7F
3F
3F
1F
0F
01
00
ENDCHAR

STARTCHAR HorizGaugeMiddleFill-1
ENCODING 220
SWIDTH 102 0
DWIDTH 1 0
BBX 1 19 0 -19
BITMAP
00
80
80
80
80
80
80
80
80
80
80
80
80
80
80
80
80
80
00
ENDCHAR

STARTCHAR HorizGaugeMiddleFill-2
ENCODING 221
SWIDTH 102 0
DWIDTH 2 0
BBX 2 19 0 -19
BITMAP
00
C0
C0
C0
C0
C0
C0
C0
C0
C0
C0
C0
C0
C0
C0
C0
C0
C0
00
ENDCHAR

STARTCHAR HorizGaugeMiddleFill-4
ENCODING 222
SWIDTH 102 0
DWIDTH 4 0
BBX 4 19 0 -19
BITMAP
00
F0
F0
F0
F0
F0
F0
F0
F0
F0
F0
F0
F0
F0
F0
F0
F0
F0
00
ENDCHAR

STARTCHAR HorizGaugeMiddleFill-8
ENCODING 223
SWIDTH 102 0
DWIDTH 8 0
BBX 8 19 0 -19
BITMAP
00
FF
FF
FF
FF
FF
FF
FF
FF
FF
FF
FF
FF
FF
FF
FF
FF
FF
00
ENDCHAR

STARTCHAR HorizGaugeMiddleFill-16
ENCODING 224
SWIDTH 102 0
DWIDTH 16 0
BBX 16 19 0 -19
BITMAP
0000
FFFF
FFFF
FFFF
FFFF
FFFF
FFFF
FFFF
FFFF
FFFF
FFFF
FFFF
FFFF
FFFF
FFFF
FFFF
FFFF
FFFF
0000
ENDCHAR

STARTCHAR HorizGaugeRightEndFi
ENCODING 225
SWIDTH 102 0
DWIDTH 8 0
BBX 8 19 0 -19
BITMAP
00
80
F0
F8
FC
FC
FE
FE
FE
FE
FE
FE
FE
FC
FC
F8
F0
80
00
ENDCHAR

STARTCHAR Vertgauge-TopEndcapF
ENCODING 226
SWIDTH 102 0
DWIDTH 19 0
BBX 19 8 0 -8
BITMAP
000000
03F800
0FFE00
1FFF00
3FFF80
3FFF80
3FFF80
7FFFC0
ENDCHAR

STARTCHAR VertgaugeBotFill
ENCODING 227
SWIDTH 102 0
DWIDTH 19 0
BBX 19 8 0 -8
BITMAP
7FFFC0
3FFF80
3FFF80
3FFF80
1FFF00
0FFE00
03F800
000000
ENDCHAR

STARTCHAR TextScrollLeft
ENCODING 228
SWIDTH 102 0
DWIDTH 19 0
BBX 27 27 0 -27
BITMAP
7FFFFF80
80000040
80000060
80000060
80000060
80018060
80038060
80078060
800F8060
801F8060
803F8060
807F8060
80FF8060
80FF8060
807F8060
801F8060
800F8060
800F8060
80078060
80038060
80018060
80000060
80000060
80000060
80000060
7FFFFFE0
3FFFFFC0
ENDCHAR

STARTCHAR TextScrollRight
ENCODING 229
SWIDTH 102 0
DWIDTH 27 0
BBX 27 27 0 -27
BITMAP
7FFFFF80
80000040
80000060
80000060
80000060
80600060
80F00060
80F80060
80FC0060
80FE0060
80FE0060
80FF0060
80FF8060
80FF8060
80FF0060
80FE0060
80FC0060
80F80060
80F80060
80F00060
80600060
80000060
80000060
80000060
80000060
7FFFFFE0
3FFFFFC0
ENDCHAR

STARTCHAR TextScrollLeftInv
ENCODING 230
SWIDTH 102 0
DWIDTH 19 0
BBX 27 27 0 -27
BITMAP
7FFFFF80
80000040
BFFFFF60
BFFFFF60
BFFFFF60
BFFFFF60
BFFE7F60
BFFC7F60
BFF87F60
BFF07F60
BFE07F60
BFC07F60
BF807F60
BF807F60
BFC07F60
BFE07F60
BFF07F60
BFF87F60
BFFC7F60
BFFE7F60
BFFFFF60
BFFFFF60
BFFFFF60
BFFFFF60
80000060
7FFFFFE0
3FFFFFC0
ENDCHAR

STARTCHAR TextScrollRightInv
ENCODING 231
SWIDTH 102 0
DWIDTH 27 0
BBX 27 27 0 -27
BITMAP
7FFFFF80
80000040
BFFFFF60
BFFFFF60
BFFFFF60
BFFFFF60
BF9FFF60
BF8FFF60
BF87FF60
BF83FF60
BF81FF60
BF80FF60
BF807F60
BF807F60
BF80FF60
BF81FF60
BF83FF60
BF87FF60
BF8FFF60
BF9FFF60
BFFFFF60
BFFFFF60
BFFFFF60
BFFFFF60
80000060
7FFFFFE0
3FFFFFC0
ENDCHAR

STARTCHAR NumericScrollNoraml
ENCODING 232
SWIDTH 102 0
DWIDTH 51 0
BBX 51 27 0 -27
BITMAP
7FFFFFFFFFFF80
800000C0000040
800000C0000060
800000C0000060
800000C0000060
800000C0000060
800000C0000060
800000C0000060
800800C3FFF060
801C00C3FFF860
803E00C3FFF860
807F00C1FFF060
80FF80C0FFE060
81FFC0C07FC060
83FFE0C03F8060
87FFF0C01F0060
87FFF0C00E0060
800000C0000060
800000C0000060
800000C0000060
800000C0000060
800000C0000060
800000C0000060
800000C0000060
800000C0000060
7FFFFFFFFFFFE0
3FFFFFFFFFFFC0
ENDCHAR

STARTCHAR NumericScrollLeftInv
ENCODING 233
SWIDTH 102 0
DWIDTH 51 0
BBX 51 27 0 -27
BITMAP
7FFFFFFFFFFF80
800000C0000040
BFFFFFC0000060
BFFFFFC0000060
BFFFFFC0000060
BFFFFFC0000060
BFFFFFC0000060
BFFFFFC0000060
BFFFFFC3FFF060
BFF3FFC3FFF860
BFE1FFC3FFF860
BFC0FFC1FFF060
BF807FC0FFE060
BF003FC07FC060
BE001FC03F8060
BC000FC01F0060
BC000FC00E0060
BFFFFFC0000060
BFFFFFC0000060
BFFFFFC0000060
BFFFFFC0000060
BFFFFFC0000060
BFFFFFC0000060
BFFFFEC0000060
800000C0000060
7FFFFFFFFFFFE0
3FFFFFFFFFFFC0
ENDCHAR

STARTCHAR NumericScrollRightInv
ENCODING 234
SWIDTH 102 0
DWIDTH 51 0
BBX 51 27 0 -27
BITMAP
7FFFFFFFFFFF80
800000C0000040
800000FFFFFF60
800000FFFFFF60
800000FFFFFF60
800000FFFFFF60
800000FFFFFF60
800000FFFFFF60
800800FFFFFF60
801C00FC000F60
803E00FC000F60
807F00FE001F60
80FF80FF003F60
81FFC0FF807F60
83FFE0FFC0FF60
87FFF0FFE1FF60
87FFF0FFF3FF60
800000FFFFFF60
800000FFFFFF60
800000FFFFFF60
800000FFFFFF60
800000FFFFFF60
800000FFFFFF60
800000FFFFFF60
800000C0000060
7FFFFFFFFFFFE0
3FFFFFFFFFFFC0
ENDCHAR
ENDFONT
